<svg width="166" height="70" viewBox="0 0 166 70" fill="none" xmlns="http://www.w3.org/2000/svg">
<rect width="166" height="70" fill="white"/>
<path d="M41.9563 45L31.4363 19.76V17H34.8763L43.4763 37.88L49.1563 25.04H49.5563V34.76L45.0363 45H41.9563ZM31.4363 45V25.84H31.7963L35.7563 35.36V45H31.4363ZM51.5963 45V17H55.9163V45H51.5963ZM69.2878 45C68.1411 45 67.1278 44.7867 66.2478 44.36C65.3945 43.9333 64.6745 43.4 64.0878 42.76C63.5278 42.12 63.1011 41.4667 62.8078 40.8C62.5145 40.1067 62.3678 39.5067 62.3678 39V28.84C62.3678 28.3333 62.5145 27.7467 62.8078 27.08C63.1011 26.4133 63.5411 25.76 64.1278 25.12C64.7145 24.48 65.4345 23.96 66.2878 23.56C67.1411 23.1333 68.1278 22.92 69.2478 22.92V26.8C68.6878 26.8 68.2078 26.9333 67.8078 27.2C67.4078 27.4667 67.0878 27.7867 66.8478 28.16C66.6078 28.5333 66.4878 28.88 66.4878 29.2V31.64H74.3278V29.24C74.3278 28.68 74.1678 28.2267 73.8478 27.88C73.5545 27.5067 73.1678 27.2267 72.6878 27.04C72.2345 26.8533 71.7678 26.76 71.2878 26.76V22.92C72.3545 22.92 73.4078 23.1733 74.4478 23.68C75.5145 24.1867 76.3945 24.88 77.0878 25.76C77.8078 26.64 78.1678 27.6533 78.1678 28.8V35.6H66.4878V39C66.4878 39.2667 66.5945 39.5733 66.8078 39.92C67.0211 40.2667 67.3411 40.5733 67.7678 40.84C68.1945 41.08 68.7011 41.2 69.2878 41.2V45ZM71.2878 45V41.2C71.9811 41.2 72.5678 41.0667 73.0478 40.8C73.5278 40.5333 73.9145 40.2 74.2078 39.8C74.5011 39.4 74.7011 39 74.8078 38.6L78.2078 39.88C78.0212 40.7333 77.6078 41.56 76.9678 42.36C76.3545 43.1333 75.5678 43.7733 74.6078 44.28C73.6478 44.76 72.5411 45 71.2878 45ZM84.4731 29.88C84.4731 28.9467 84.6331 28.0667 84.9531 27.24C85.2731 26.3867 85.7398 25.64 86.3531 25C86.9665 24.3333 87.6998 23.8133 88.5531 23.44C89.4331 23.0667 90.4065 22.88 91.4731 22.88V26.88C90.9398 26.88 90.4465 27.0267 89.9931 27.32C89.5665 27.5867 89.2198 27.96 88.9531 28.44C88.6865 28.92 88.5531 29.4667 88.5531 30.08V45H84.4731V29.88ZM96.3131 30.08C96.3131 29.5733 96.2065 29.08 95.9931 28.6C95.7798 28.0933 95.4465 27.68 94.9931 27.36C94.5398 27.04 94.0065 26.88 93.3931 26.88V22.88C94.4598 22.88 95.4198 23.0667 96.2731 23.44C97.1531 23.8133 97.8998 24.3333 98.5131 25C99.1265 25.6667 99.5931 26.4267 99.9131 27.28C100.233 28.1067 100.393 28.9733 100.393 29.88V45H96.3131V30.08ZM127.193 45.2V41.32C127.647 41.32 128.127 41.2267 128.633 41.04C129.167 40.8267 129.62 40.52 129.993 40.12C130.367 39.6933 130.553 39.16 130.553 38.52C130.553 37.9333 130.287 37.4533 129.753 37.08C129.22 36.7067 128.54 36.4 127.713 36.16C126.913 35.92 126.047 35.6933 125.113 35.48C124.18 35.24 123.313 34.9867 122.513 34.72C121.98 34.5067 121.42 34.1867 120.833 33.76C120.247 33.3333 119.74 32.76 119.313 32.04C118.887 31.32 118.673 30.4133 118.673 29.32C118.673 28.0667 118.9 27.0267 119.353 26.2C119.833 25.3467 120.42 24.6667 121.113 24.16C121.833 23.6533 122.567 23.2933 123.313 23.08C124.087 22.8667 124.767 22.76 125.353 22.76V26.6C124.74 26.6 124.22 26.72 123.793 26.96C123.367 27.2 123.047 27.5067 122.833 27.88C122.62 28.2533 122.513 28.64 122.513 29.04C122.513 29.6267 122.78 30.12 123.313 30.52C123.873 30.92 124.7 31.2933 125.793 31.64C126.913 31.96 128.34 32.3333 130.073 32.76C130.527 32.84 131.007 33.0133 131.513 33.28C132.02 33.5467 132.5 33.8933 132.953 34.32C133.407 34.7467 133.78 35.2933 134.073 35.96C134.367 36.6 134.513 37.3733 134.513 38.28C134.513 39.72 134.18 40.96 133.513 42C132.873 43.04 131.993 43.84 130.873 44.4C129.753 44.9333 128.527 45.2 127.193 45.2ZM125.433 45.2C123.86 45.2 122.553 44.8933 121.513 44.28C120.5 43.6667 119.74 42.8933 119.233 41.96C118.727 41.0267 118.473 40.1067 118.473 39.2L122.313 38.48C122.313 39.04 122.473 39.5333 122.793 39.96C123.14 40.36 123.553 40.68 124.033 40.92C124.513 41.16 124.98 41.2933 125.433 41.32V45.2ZM130.313 29.52C130.313 28.7467 130.1 28.16 129.673 27.76C129.273 27.3333 128.807 27.04 128.273 26.88C127.767 26.6933 127.38 26.6 127.113 26.6L127.153 22.76C128.54 22.76 129.753 23.08 130.793 23.72C131.833 24.3333 132.647 25.1067 133.233 26.04C133.82 26.9733 134.113 27.92 134.113 28.88L130.313 29.52ZM31.2346 55.814V54.946H37.2546V55.814H31.2346ZM44.2211 60V50.816H49.8631V51.796H45.3971V54.904H49.1771V55.884H45.3971V60H44.2211ZM58.1177 60.168C57.6977 60.168 57.3103 60.0933 56.9557 59.944C56.601 59.7853 56.321 59.5613 56.1157 59.272C55.9103 58.9827 55.8077 58.6373 55.8077 58.236C55.8077 57.4707 56.1903 56.892 56.9557 56.5C57.721 56.0987 58.981 55.828 60.7357 55.688C60.7263 55.38 60.661 55.0953 60.5397 54.834C60.4277 54.5727 60.241 54.3673 59.9797 54.218C59.7183 54.0593 59.3683 53.98 58.9297 53.98C58.6403 53.98 58.351 54.022 58.0617 54.106C57.7817 54.1807 57.511 54.2833 57.2497 54.414C56.9977 54.5353 56.7643 54.6613 56.5497 54.792L56.1017 54.008C56.3257 53.8587 56.5963 53.7093 56.9137 53.56C57.2403 53.4013 57.5903 53.2753 57.9637 53.182C58.337 53.0793 58.7243 53.028 59.1257 53.028C59.751 53.028 60.2643 53.1447 60.6657 53.378C61.0763 53.6113 61.3797 53.938 61.5757 54.358C61.781 54.7687 61.8837 55.2587 61.8837 55.828V60H60.9457L60.8477 59.076H60.8057C60.4323 59.3747 60.0123 59.6313 59.5457 59.846C59.079 60.0607 58.603 60.168 58.1177 60.168ZM58.4257 59.244C58.8177 59.244 59.205 59.1553 59.5877 58.978C59.9703 58.8007 60.353 58.5533 60.7357 58.236V56.444C59.765 56.528 58.9997 56.6447 58.4397 56.794C57.889 56.9433 57.497 57.1347 57.2637 57.368C57.0397 57.592 56.9277 57.8533 56.9277 58.152C56.9277 58.404 56.9977 58.614 57.1377 58.782C57.2777 58.9407 57.4597 59.0573 57.6837 59.132C57.917 59.2067 58.1643 59.244 58.4257 59.244ZM71.3282 60.168C70.6655 60.168 70.0449 60.0607 69.4662 59.846C68.8875 59.6313 68.3929 59.384 67.9822 59.104L68.5142 58.348C68.9062 58.628 69.3402 58.852 69.8162 59.02C70.2922 59.188 70.8429 59.272 71.4682 59.272C72.0469 59.272 72.4762 59.1647 72.7562 58.95C73.0455 58.7353 73.1902 58.488 73.1902 58.208C73.1902 58.0773 73.1622 57.956 73.1062 57.844C73.0595 57.732 72.9615 57.6247 72.8122 57.522C72.6722 57.4193 72.4622 57.3213 72.1822 57.228C71.9022 57.1347 71.5289 57.0413 71.0622 56.948C70.1755 56.7613 69.5082 56.5093 69.0602 56.192C68.6215 55.8747 68.4022 55.464 68.4022 54.96C68.4022 54.4093 68.6402 53.952 69.1162 53.588C69.5922 53.2147 70.2969 53.028 71.2302 53.028C71.7529 53.028 72.2569 53.1167 72.7422 53.294C73.2275 53.462 73.6382 53.6627 73.9742 53.896L73.4142 54.638C73.1062 54.414 72.7562 54.2413 72.3642 54.12C71.9722 53.9893 71.5615 53.924 71.1322 53.924C70.7402 53.924 70.4275 53.9707 70.1942 54.064C69.9702 54.148 69.8069 54.2647 69.7042 54.414C69.6109 54.5633 69.5642 54.7267 69.5642 54.904C69.5642 55.1933 69.7182 55.422 70.0262 55.59C70.3435 55.7487 70.8475 55.898 71.5382 56.038C72.2942 56.1967 72.8729 56.374 73.2742 56.57C73.6849 56.766 73.9649 56.99 74.1142 57.242C74.2729 57.494 74.3522 57.7927 74.3522 58.138C74.3522 58.5113 74.2355 58.852 74.0022 59.16C73.7689 59.4587 73.4282 59.7013 72.9802 59.888C72.5322 60.0747 71.9815 60.168 71.3282 60.168ZM80.6047 60V50.032H81.7527V52.748L81.6827 54.358H81.7247C82.0701 53.9847 82.4481 53.672 82.8587 53.42C83.2694 53.1587 83.7407 53.028 84.2727 53.028C85.0754 53.028 85.6681 53.2613 86.0507 53.728C86.4334 54.1947 86.6247 54.876 86.6247 55.772V60H85.4767V55.926C85.4767 55.282 85.3554 54.806 85.1127 54.498C84.8701 54.1807 84.4687 54.022 83.9087 54.022C83.5074 54.022 83.1481 54.1247 82.8307 54.33C82.5134 54.5353 82.1541 54.8433 81.7527 55.254V60H80.6047ZM96.0413 60V54.134H92.8773V53.196H97.1893V60H96.0413ZM96.4893 51.768C96.2279 51.768 96.0086 51.6887 95.8313 51.53C95.6539 51.362 95.5653 51.1427 95.5653 50.872C95.5653 50.6013 95.6539 50.3867 95.8313 50.228C96.0086 50.06 96.2279 49.976 96.4893 49.976C96.7506 49.976 96.9699 50.06 97.1473 50.228C97.3246 50.3867 97.4133 50.6013 97.4133 50.872C97.4133 51.1427 97.3246 51.362 97.1473 51.53C96.9699 51.6887 96.7506 51.768 96.4893 51.768ZM108.132 60.168C107.534 60.168 106.979 60.028 106.466 59.748C105.962 59.468 105.551 59.062 105.234 58.53C104.926 57.998 104.772 57.3587 104.772 56.612C104.772 55.8467 104.926 55.198 105.234 54.666C105.551 54.134 105.962 53.728 106.466 53.448C106.979 53.168 107.534 53.028 108.132 53.028C108.729 53.028 109.28 53.168 109.784 53.448C110.297 53.728 110.708 54.134 111.016 54.666C111.333 55.198 111.492 55.8467 111.492 56.612C111.492 57.3587 111.333 57.998 111.016 58.53C110.708 59.062 110.297 59.468 109.784 59.748C109.28 60.028 108.729 60.168 108.132 60.168ZM108.132 59.216C108.57 59.216 108.953 59.1087 109.28 58.894C109.606 58.67 109.858 58.362 110.036 57.97C110.213 57.578 110.302 57.1253 110.302 56.612C110.302 56.0893 110.213 55.632 110.036 55.24C109.858 54.8387 109.606 54.5307 109.28 54.316C108.953 54.092 108.57 53.98 108.132 53.98C107.693 53.98 107.31 54.092 106.984 54.316C106.666 54.5307 106.414 54.8387 106.228 55.24C106.05 55.632 105.962 56.0893 105.962 56.612C105.962 57.1253 106.05 57.578 106.228 57.97C106.414 58.362 106.666 58.67 106.984 58.894C107.31 59.1087 107.693 59.216 108.132 59.216ZM117.548 60V53.196H118.5L118.598 54.358H118.654C119.009 53.9753 119.392 53.658 119.802 53.406C120.213 53.154 120.684 53.028 121.216 53.028C122.019 53.028 122.612 53.2613 122.994 53.728C123.377 54.1947 123.568 54.876 123.568 55.772V60H122.42V55.926C122.42 55.282 122.299 54.806 122.056 54.498C121.814 54.1807 121.412 54.022 120.852 54.022C120.451 54.022 120.092 54.1247 119.774 54.33C119.457 54.5353 119.098 54.8433 118.696 55.254V60H117.548ZM129.751 55.814V54.946H135.771V55.814H129.751Z" fill="black"/>
<path d="M110.579 16H107.786V19.6469H110.579V16Z" fill="#FF0000"/>
<path d="M110.579 21.0299H107.786L107 33.0945L109.183 36.6312L111.365 33.0945L110.579 21.0299Z" fill="#FF0000"/>
</svg>
